GIL12_fast2_ik
nRows=3
nColumns=375

# SIMM Motion File Header:
name GIL12_fast2_ik
datacolumns 375
datarows 3
otherdata 1
range 0.49167000 0.50833000
endheader
time	pelvis_tx	pelvis_ty	pelvis_tz	pelvis_tilt	pelvis_list	pelvis_rotation	hip_flexion_r	hip_adduction_r	hip_rotation_r	knee_angle_r	ankle_angle_r	hip_flexion_l	hip_adduction_l	hip_rotation_l	knee_angle_l	ankle_angle_l	lumbar_extension	lumbar_bending	lumbar_rotation	subtalar_angle_r	mtp_angle_r	subtalar_angle_l	mtp_angle_l	asis_r_px	asis_r_py	asis_r_pz	asis_l_px	asis_l_py	asis_l_pz	midasis_px	midasis_py	midasis_pz	psis_r_px	psis_r_py	psis_r_pz	psis_l_px	psis_l_py	psis_l_pz	hip_r_px	hip_r_py	hip_r_pz	hip_l_px	hip_l_py	hip_l_pz	midhip_px	midhip_py	midhip_pz	epicondLat_r_px	epicondLat_r_py	epicondLat_r_pz	epicondMed_r_px	epicondMed_r_py	epicondMed_r_pz	thighwand_r_px	thighwand_r_py	thighwand_r_pz	upperleg1_r_px	upperleg1_r_py	upperleg1_r_pz	upperleg2_r_px	upperleg2_r_py	upperleg2_r_pz	malleolusLat_r_px	malleolusLat_r_py	malleolusLat_r_pz	malleolusMedv_r_px	malleolusMedv_r_py	malleolusMedv_r_pz	shankwand_r_px	shankwand_r_py	shankwand_r_pz	lowerleg1_r_px	lowerleg1_r_py	lowerleg1_r_pz	knee_r_px	knee_r_py	knee_r_pz	ankle_r_px	ankle_r_py	ankle_r_pz	toe_r_px	toe_r_py	toe_r_pz	epicondLat_l_px	epicondLat_l_py	epicondLat_l_pz	epicondMed_l_px	epicondMed_l_py	epicondMed_l_pz	thighwand_l_px	thighwand_l_py	thighwand_l_pz	upperleg1_l_px	upperleg1_l_py	upperleg1_l_pz	upperleg2_l_px	upperleg2_l_py	upperleg2_l_pz	malleolusLat_l_px	malleolusLat_l_py	malleolusLat_l_pz	malleolusMedv_l_px	malleolusMedv_l_py	malleolusMedv_l_pz	shankwand_l_px	shankwand_l_py	shankwand_l_pz	lowerleg1_l_px	lowerleg1_l_py	lowerleg1_l_pz	knee_l_px	knee_l_py	knee_l_pz	ankle_l_px	ankle_l_py	ankle_l_pz	toe_l_px	toe_l_py	toe_l_pz	subclavicle_r_px	subclavicle_r_py	subclavicle_r_pz	subclavicle_l_px	subclavicle_l_py	subclavicle_l_pz	neck_px	neck_py	neck_pz	sternalnotch_px	sternalnotch_py	sternalnotch_pz	xyphoidprocess_px	xyphoidprocess_py	xyphoidprocess_pz	midhip_tx	midhip_ty	midhip_tz	hip_r_tx	hip_r_ty	hip_r_tz	hip_l_tx	hip_l_ty	hip_l_tz	knee_r_tx	knee_r_ty	knee_r_tz	knee_l_tx	knee_l_ty	knee_l_tz	ankle_r_tx	ankle_r_ty	ankle_r_tz	ankle_l_tx	ankle_l_ty	ankle_l_tz	midasis_tx	midasis_ty	midasis_tz	asis_r_tx	asis_r_ty	asis_r_tz	asis_l_tx	asis_l_ty	asis_l_tz	psis_r_tx	psis_r_ty	psis_r_tz	psis_l_tx	psis_l_ty	psis_l_tz	epicondLat_r_tx	epicondLat_r_ty	epicondLat_r_tz	epicondLat_l_tx	epicondLat_l_ty	epicondLat_l_tz	epicondMed_r_tx	epicondMed_r_ty	epicondMed_r_tz	epicondMed_l_tx	epicondMed_l_ty	epicondMed_l_tz	malleolusLat_r_tx	malleolusLat_r_ty	malleolusLat_r_tz	malleolusLat_l_tx	malleolusLat_l_ty	malleolusLat_l_tz	malleolusMedv_r_tx	malleolusMedv_r_ty	malleolusMedv_r_tz	malleolusMedv_l_tx	malleolusMedv_l_ty	malleolusMedv_l_tz	neck_tx	neck_ty	neck_tz	subclavicle_r_tx	subclavicle_r_ty	subclavicle_r_tz	subclavicle_l_tx	subclavicle_l_ty	subclavicle_l_tz	sternalnotch_tx	sternalnotch_ty	sternalnotch_tz	xyphoidprocess_tx	xyphoidprocess_ty	xyphoidprocess_tz	thighwand_r_tx	thighwand_r_ty	thighwand_r_tz	thighwand_l_tx	thighwand_l_ty	thighwand_l_tz	upperleg1_r_tx	upperleg1_r_ty	upperleg1_r_tz	upperleg1_l_tx	upperleg1_l_ty	upperleg1_l_tz	upperleg2_r_tx	upperleg2_r_ty	upperleg2_r_tz	upperleg2_l_tx	upperleg2_l_ty	upperleg2_l_tz	shankwand_r_tx	shankwand_r_ty	shankwand_r_tz	shankwand_l_tx	shankwand_l_ty	shankwand_l_tz	lowerleg1_r_tx	lowerleg1_r_ty	lowerleg1_r_tz	lowerleg1_l_tx	lowerleg1_l_ty	lowerleg1_l_tz	toe_r_tx	toe_r_ty	toe_r_tz	toe_l_tx	toe_l_ty	toe_l_tz	ground_force_vx	ground_force_vy	ground_force_vz	ground_force_px	ground_force_py	ground_force_pz	ground_force_vx	ground_force_vy	ground_force_vz	ground_force_px	ground_force_py	ground_force_pz	ground_torque_x	ground_torque_y	ground_torque_z	ground_torque_x	ground_torque_y	ground_torque_z	ground_marker_px	ground_marker_py	ground_marker_pz	ground_marker_px	ground_marker_py	ground_marker_pz	ground_marker_px	ground_marker_py	ground_marker_pz	ground_marker_px	ground_marker_py	ground_marker_pz	ground_marker_px	ground_marker_py	ground_marker_pz	ground_marker_px	ground_marker_py	ground_marker_pz	ground_marker_px	ground_marker_py	ground_marker_pz	ground_marker_px	ground_marker_py	ground_marker_pz	ground_marker_px	ground_marker_py	ground_marker_pz	ground_marker_px	ground_marker_py	ground_marker_pz	ground_marker_px	ground_marker_py	ground_marker_pz	ground_marker_px	ground_marker_py	ground_marker_pz	ground_marker_px	ground_marker_py	ground_marker_pz	ground_marker_px	ground_marker_py	ground_marker_pz	ground_marker_px	ground_marker_py	ground_marker_pz	ground_marker_px	ground_marker_py	ground_marker_pz	ground_marker_px	ground_marker_py	ground_marker_pz	ground_marker_px	ground_marker_py	ground_marker_pz	ground_marker_px	ground_marker_py	ground_marker_pz	ground_marker_px	ground_marker_py	ground_marker_pz	ground_marker_px	ground_marker_py	ground_marker_pz	ground_marker_px	ground_marker_py	ground_marker_pz	ground_marker_px	ground_marker_py	ground_marker_pz	ground_marker_px	ground_marker_py	ground_marker_pz	ground_marker_px	ground_marker_py	ground_marker_pz	ground_marker_px	ground_marker_py	ground_marker_pz	ground_marker_px	ground_marker_py	ground_marker_pz	ground_marker_px	ground_marker_py	ground_marker_pz	ground_marker_px	ground_marker_py	ground_marker_pz	ground_marker_px	ground_marker_py	ground_marker_pz	ground_marker_px	ground_marker_py	ground_marker_pz	ground_marker_px	ground_marker_py	ground_marker_pz	ground_marker_px	ground_marker_py	ground_marker_pz	ground_marker_px	ground_marker_py	ground_marker_pz	ground_marker_px	ground_marker_py	ground_marker_pz	ground_marker_px	ground_marker_py	ground_marker_pz	ground_marker_px	ground_marker_py	ground_marker_pz
      0.49167000	      1.15828092	      0.64436114	     -0.28553536	      4.96416013	      3.67403733	     -4.38925066	    -24.23666316	     -7.95695282	     -8.92799101	    -32.42038055	    -16.32175281	     27.48821962	      0.54327502	     -7.02519223	    -28.69032669	     -3.66120401	    -23.87401660	    -10.90016948	      3.30679075	      0.00000000	      0.00000000	      0.00000000	      0.00000000	      1.18988120	      0.63023483	     -0.20345714	      1.20387690	      0.64473447	     -0.37673145	      1.16777494	      0.64513874	     -0.28480570	      1.06378525	      0.68472178	     -0.25303363	      1.07019656	      0.69100505	     -0.33786386	      1.11020183	      0.59158422	     -0.23541340	      1.11826080	      0.59959292	     -0.34880787	      1.11423132	      0.59558857	     -0.29211063	      1.00671754	      0.30010130	     -0.17545300	      1.02178707	      0.28995423	     -0.26729136	      1.16165240	      0.33566719	     -0.21878522	      1.10254084	      0.41497180	     -0.19091742	      1.06261528	      0.33672329	     -0.19027050	      0.76379472	      0.13081321	     -0.20143215	      0.78113852	      0.11250508	     -0.25710169	      0.83535540	      0.17345262	     -0.12594404	      0.88569675	      0.20712013	     -0.18612113	      1.00845637	      0.30410394	     -0.22033934	      0.78302136	      0.12429999	     -0.23905508	      0.79183738	      0.03654012	     -0.20878984	      1.28403163	      0.33589068	     -0.40206339	      1.29484970	      0.34106813	     -0.31074447	      1.29233804	      0.42781423	     -0.46298389	      1.26250280	      0.48347378	     -0.38343688	      1.30593684	      0.41274452	     -0.36503230	      1.28607314	      0.04628554	     -0.38843789	      1.31207891	      0.04500445	     -0.32851568	      1.39349115	      0.16010426	     -0.35103400	      1.32501110	      0.21179742	     -0.36181949	      1.28159421	      0.34220953	     -0.35252510	      1.29993249	      0.05382744	     -0.35212273	      1.38545017	      0.02786633	     -0.39008863	      1.20772623	      0.93866709	     -0.27538635	      1.20322663	      0.93014746	     -0.36356160	      1.11307307	      0.97636445	     -0.31559956	      1.18872651	      0.94478568	     -0.31184366	      1.25885671	      0.82128446	     -0.30867181	      1.11678300	      0.58170000	     -0.29405300	      1.11742900	      0.59153700	     -0.23786700	      1.12848800	      0.59782200	     -0.35462200	      1.01480200	      0.30580100	     -0.22436900	      1.28862400	      0.34090400	     -0.34755700	      0.77822200	      0.12601900	     -0.21648500	      1.30428300	      0.05537600	     -0.36892800	      1.16687900	      0.65644400	     -0.28876000	      1.15852000	      0.65169500	     -0.20051400	      1.17523700	      0.66119400	     -0.37700600	      1.02790000	      0.67488000	     -0.25738700	      1.03542900	      0.67329600	     -0.34179400	      1.00558200	      0.31122600	     -0.17963100	      1.28854500	      0.33953500	     -0.39553700	      1.02209500	      0.30043500	     -0.27118100	      1.29128000	      0.34219500	     -0.29862100	      0.77276800	      0.13459600	     -0.18456400	      1.29538500	      0.05722400	     -0.40013200	      0.77500200	      0.13479500	     -0.24334700	      1.30446100	      0.05088600	     -0.33535700	      1.10937300	      0.98959600	     -0.31679300	      1.20580400	      0.92632700	     -0.27291000	      1.20203600	      0.91754900	     -0.36408400	      1.18911800	      0.93612400	     -0.31099500	      1.23412100	      0.80076000	     -0.30549000	      1.16205500	      0.33970000	     -0.22441300	      1.30450400	      0.43653500	     -0.45053400	      1.11029700	      0.42041400	     -0.19484200	      1.27163800	      0.48676900	     -0.37247400	      1.06788600	      0.34394400	     -0.19442900	      1.31071400	      0.41430600	     -0.35026900	      0.86114600	      0.18475800	     -0.11344800	      1.39299600	      0.17090700	     -0.33497400	      0.89442800	      0.21265300	     -0.17884400	      1.33022300	      0.21694300	     -0.35329500	      0.79795500	      0.04743800	     -0.22627600	      1.38945700	      0.03848200	     -0.37471200	      7.43425824	      9.72121484	     -0.46529056	      0.79215472	      0.00000000	     -0.23755551	    -73.43324488	    337.17041320	     24.86020709	      1.30697449	      0.00000000	     -0.37651868	      0.00000000	     -0.03057440	      0.00000000	      0.00000000	      0.40452563	      0.00000000	      1.11678267	      0.58170015	     -0.29405272	      1.11742949	      0.59153742	     -0.23786744	      1.12848830	      0.59782177	     -0.35462159	      1.01480186	      0.30580068	     -0.22436927	      1.28862393	      0.34090352	     -0.34755701	      0.77822232	      0.12601908	     -0.21648496	      1.30428302	      0.05537612	     -0.36892805	      1.16687858	      0.65644443	     -0.28875995	      1.15851998	      0.65169454	     -0.20051351	      1.17523718	      0.66119432	     -0.37700641	      1.02789950	      0.67487997	     -0.25738734	      1.03542852	      0.67329645	     -0.34179378	      1.00558162	      0.31122571	     -0.17963050	      1.28854537	      0.33953527	     -0.39553741	      1.02209520	      0.30043519	     -0.27118081	      1.29128003	      0.34219465	     -0.29862052	      0.77276844	      0.13459592	     -0.18456408	      1.29538524	      0.05722365	     -0.40013164	      0.77500194	      0.13479502	     -0.24334669	      1.30446124	      0.05088596	     -0.33535677	      1.10937333	      0.98959625	     -0.31679317	      1.20580387	      0.92632699	     -0.27291027	      1.20203567	      0.91754913	     -0.36408398	      1.18911767	      0.93612367	     -0.31099495	      1.23412120	      0.80075979	     -0.30548972	      1.16205537	      0.33969989	     -0.22441271	      1.30450439	      0.43653482	     -0.45053399	      1.11029720	      0.42041397	     -0.19484249	      1.27163792	      0.48676881	     -0.37247401	      1.06788611	      0.34394422	     -0.19442937	      1.31071448	      0.41430593	     -0.35026947	      0.86114585	      0.18475750	     -0.11344810	      1.39299643	      0.17090672	     -0.33497360	      0.89442831	      0.21265261	     -0.17884439	      1.33022332	      0.21694295	     -0.35329548	      0.79795468	      0.04743801	     -0.22627582	      1.38945746	      0.03848235	     -0.37471220
      0.50000000	      1.17116610	      0.64634147	     -0.28616677	      5.06113543	      4.26703477	     -4.42465084	    -22.44546705	     -8.89568500	     -9.81861577	    -36.09952827	    -18.72969708	     26.59827074	      1.20023427	     -7.90446742	    -29.53139195	     -2.17477800	    -24.05952560	    -11.80710804	      2.92530191	      0.00000000	      0.00000000	      0.00000000	      0.00000000	      1.20281415	      0.63141749	     -0.20424827	      1.21673415	      0.64773519	     -0.37736693	      1.18065905	      0.64712715	     -0.28543176	      1.07661375	      0.68620702	     -0.25322186	      1.08298935	      0.69337968	     -0.33798422	      1.12318904	      0.59296863	     -0.23658094	      1.13120092	      0.60216537	     -0.34988858	      1.12719498	      0.59756700	     -0.29323476	      1.02861819	      0.29898648	     -0.17415179	      1.04509039	      0.28822622	     -0.26567894	      1.18280236	      0.33910519	     -0.21616556	      1.12079946	      0.41675327	     -0.18996582	      1.08345562	      0.33724630	     -0.18879175	      0.78091065	      0.13602820	     -0.20456807	      0.79874830	      0.11714297	     -0.25988768	      0.85227482	      0.17660081	     -0.12776622	      0.90472872	      0.20867644	     -0.18700116	      1.03095821	      0.30190711	     -0.21895154	      0.80064156	      0.12889806	     -0.24181619	      0.80272496	      0.04032515	     -0.21273008	      1.29260802	      0.33571108	     -0.40284940	      1.30427900	      0.34130127	     -0.31165993	      1.30174866	      0.42711738	     -0.46442519	      1.27341580	      0.48371049	     -0.38498765	      1.31595813	      0.41246355	     -0.36649720	      1.28629562	      0.04618051	     -0.38723440	      1.31275994	      0.04453461	     -0.32752223	      1.39732715	      0.15703300	     -0.35151172	      1.33030754	      0.21064779	     -0.36208774	      1.29082418	      0.34234155	     -0.35333850	      1.30067833	      0.05355353	     -0.35108846	      1.38557983	      0.02710368	     -0.39008592	      1.22090176	      0.94042409	     -0.27702172	      1.21643286	      0.93133415	     -0.36514157	      1.12632710	      0.97800348	     -0.31752899	      1.20192968	      0.94633314	     -0.31352796	      1.27186700	      0.82274713	     -0.30951184	      1.13025900	      0.58338900	     -0.29563500	      1.13045800	      0.59263000	     -0.23934900	      1.14176500	      0.60013300	     -0.35600700	      1.03711200	      0.30336000	     -0.22354000	      1.29801300	      0.34104100	     -0.34813700	      0.79503200	      0.13122600	     -0.21756800	      1.30508700	      0.05500800	     -0.36895300	      1.17987800	      0.65816300	     -0.28946300	      1.17132100	      0.65248500	     -0.20118400	      1.18843400	      0.66384100	     -0.37774100	      1.04104900	      0.67598800	     -0.25775400	      1.04857400	      0.67514200	     -0.34216000	      1.02706100	      0.30903700	     -0.17901200	      1.29764100	      0.33936000	     -0.39610700	      1.04653500	      0.29612200	     -0.27039100	      1.30052700	      0.34174500	     -0.29962600	      0.78929400	      0.14039600	     -0.18586300	      1.29610000	      0.05705400	     -0.40011800	      0.79300700	      0.13937100	     -0.24472500	      1.30469500	      0.05088300	     -0.33534500	      1.12253500	      0.99159400	     -0.31889200	      1.21940700	      0.92827100	     -0.27458700	      1.21573900	      0.91896900	     -0.36553400	      1.20233300	      0.93774400	     -0.31255500	      1.24779300	      0.80252900	     -0.30630400	      1.18370300	      0.34129400	     -0.22186100	      1.31479500	      0.43575800	     -0.45193000	      1.12886000	      0.41992000	     -0.19366000	      1.28357000	      0.48633100	     -0.37391400	      1.08943500	      0.34195500	     -0.19329200	      1.32113800	      0.41331200	     -0.35170300	      0.87781700	      0.18864400	     -0.11378800	      1.39754100	      0.16783000	     -0.33563200	      0.91386000	      0.21343400	     -0.17835900	      1.33593900	      0.21568500	     -0.35385000	      0.80953300	      0.05030400	     -0.22572200	      1.39005800	      0.03774800	     -0.37501000	      0.00000000	      0.00000000	      0.00000000	      0.79780811	      0.00000000	     -0.22332816	    -72.44881717	    353.11533934	     27.66850358	      1.30989600	      0.00000000	     -0.37681128	      0.00000000	      0.00000000	      0.00000000	      0.00000000	      0.44929932	      0.00000000	      1.13025904	      0.58338892	     -0.29563510	      1.13045812	      0.59262997	     -0.23934904	      1.14176512	      0.60013318	     -0.35600743	      1.03711212	      0.30335996	     -0.22354019	      1.29801309	      0.34104079	     -0.34813738	      0.79503196	      0.13122578	     -0.21756844	      1.30508733	      0.05500783	     -0.36895293	      1.17987776	      0.65816259	     -0.28946263	      1.17132139	      0.65248466	     -0.20118399	      1.18843400	      0.66384053	     -0.37774128	      1.04104888	      0.67598814	     -0.25775430	      1.04857385	      0.67514181	     -0.34215963	      1.02706087	      0.30903691	     -0.17901215	      1.29764140	      0.33935961	     -0.39610651	      1.04653513	      0.29612234	     -0.27039072	      1.30052733	      0.34174499	     -0.29962629	      0.78929359	      0.14039589	     -0.18586306	      1.29609966	      0.05705356	     -0.40011844	      0.79300684	      0.13937117	     -0.24472469	      1.30469549	      0.05088291	     -0.33534470	      1.12253499	      0.99159378	     -0.31889245	      1.21940672	      0.92827100	     -0.27458724	      1.21573901	      0.91896909	     -0.36553437	      1.20233309	      0.93774402	     -0.31255510	      1.24779284	      0.80252916	     -0.30630407	      1.18370283	      0.34129450	     -0.22186084	      1.31479478	      0.43575767	     -0.45193031	      1.12885976	      0.41992003	     -0.19366029	      1.28357017	      0.48633051	     -0.37391406	      1.08943450	      0.34195465	     -0.19329156	      1.32113814	      0.41331232	     -0.35170349	      0.87781739	      0.18864417	     -0.11378772	      1.39754105	      0.16782980	     -0.33563194	      0.91386020	      0.21343376	     -0.17835923	      1.33593881	      0.21568467	     -0.35385022	      0.80953252	      0.05030414	     -0.22572152	      1.39005840	      0.03774840	     -0.37501025
      0.50833000	      1.18379092	      0.64869084	     -0.28639361	      5.11971798	      4.80300747	     -4.53630748	    -20.45752008	     -9.81655007	    -10.83523557	    -39.69956318	    -20.10250446	     25.54041509	      1.78082066	     -8.60506681	    -29.99341333	     -0.72238615	    -24.17640302	    -12.68246246	      2.56039882	      0.00000000	      0.00000000	      0.00000000	      0.00000000	      1.21536179	      0.63301743	     -0.20458536	      1.22945811	      0.65098934	     -0.37752584	      1.19328237	      0.64947770	     -0.28564065	      1.08916758	      0.68816031	     -0.25317677	      1.09563021	      0.69614257	     -0.33786013	      1.13580596	      0.59480843	     -0.23736972	      1.14393452	      0.60508699	     -0.35057604	      1.13987024	      0.59994771	     -0.29397288	      1.05073624	      0.29847504	     -0.17243738	      1.06910314	      0.28710657	     -0.26352937	      1.20407245	      0.34353491	     -0.21250036	      1.13891635	      0.41925023	     -0.18837812	      1.10441280	      0.33847874	     -0.18671383	      0.79944630	      0.14083370	     -0.20859404	      0.81812016	      0.12141870	     -0.26345237	      0.86995581	      0.17969514	     -0.13013574	      0.92461475	      0.21033924	     -0.18812171	      1.05390480	      0.30028522	     -0.21711267	      0.81987760	      0.13314891	     -0.24535103	      0.81700212	      0.04436028	     -0.21699943	      1.30010177	      0.33549096	     -0.40334691	      1.31240479	      0.34123772	     -0.31225030	      1.31056323	      0.42646111	     -0.46535685	      1.28373953	      0.48389049	     -0.38599559	      1.32507116	      0.41194821	     -0.36745163	      1.28624868	      0.04625063	     -0.38638552	      1.31300378	      0.04416621	     -0.32681680	      1.40037719	      0.15428021	     -0.35179252	      1.33473924	      0.20960365	     -0.36223294	      1.29880384	      0.34233357	     -0.35385771	      1.30102937	      0.05339852	     -0.35035508	      1.38547133	      0.02675907	     -0.39021178	      1.23372508	      0.94265496	     -0.27831689	      1.22940879	      0.93296252	     -0.36638012	      1.13926514	      0.98005349	     -0.31925691	      1.21482654	      0.94833214	     -0.31489799	      1.28462502	      0.82470342	     -0.30990106	      1.14338600	      0.58541000	     -0.29712100	      1.14313200	      0.59409600	     -0.24069300	      1.15483700	      0.60271600	     -0.35723500	      1.05999000	      0.30157200	     -0.22251200	      1.30621300	      0.34094600	     -0.34877300	      0.81338100	      0.13635500	     -0.21898700	      1.30560500	      0.05472700	     -0.36900200	      1.19263100	      0.66016900	     -0.29001200	      1.18376500	      0.65364100	     -0.20173900	      1.20149700	      0.66669800	     -0.37828500	      1.05392800	      0.67744700	     -0.25833200	      1.06158700	      0.67741200	     -0.34272100	      1.04887100	      0.30748300	     -0.17826900	      1.30566300	      0.33907800	     -0.39673300	      1.07116200	      0.29232300	     -0.26911800	      1.30893400	      0.34082400	     -0.30121900	      0.80726400	      0.14615500	     -0.18754200	      1.29657400	      0.05694700	     -0.40014300	      0.81129000	      0.14517600	     -0.24648600	      1.30481900	      0.05095500	     -0.33540200	      1.13535500	      0.99373400	     -0.32077100	      1.23237800	      0.93055900	     -0.27586500	      1.22911400	      0.92075900	     -0.36662300	      1.21523100	      0.93976000	     -0.31378300	      1.26104500	      0.80468200	     -0.30667800	      1.20532900	      0.34374400	     -0.21848400	      1.32447800	      0.43499800	     -0.45314600	      1.14717000	      0.41995600	     -0.19220500	      1.29488100	      0.48582300	     -0.37505100	      1.11063500	      0.34065200	     -0.19169400	      1.33077800	      0.41211000	     -0.35333900	      0.89537500	      0.19288200	     -0.11439700	      1.40129400	      0.16505100	     -0.33618100	      0.93364100	      0.21496800	     -0.17807500	      1.34084100	      0.21464800	     -0.35434300	      0.82401200	      0.05380600	     -0.22475000	      1.39044100	      0.03731900	     -0.37529100	      0.00000000	      0.00000000	      0.00000000	      0.80162555	      0.00000000	     -0.22016490	    -69.48815734	    363.14463565	     30.02849730	      1.31242542	      0.00000000	     -0.37711566	      0.00000000	      0.00000000	      0.00000000	      0.00000000	      0.49166748	      0.00000000	      1.14338565	      0.58540994	     -0.29712147	      1.14313161	      0.59409636	     -0.24069278	      1.15483713	      0.60271585	     -0.35723463	      1.05999005	      0.30157235	     -0.22251181	      1.30621302	      0.34094632	     -0.34877253	      0.81338072	      0.13635457	     -0.21898693	      1.30560517	      0.05472678	     -0.36900243	      1.19263077	      0.66016948	     -0.29001182	      1.18376458	      0.65364081	     -0.20173891	      1.20149684	      0.66669810	     -0.37828472	      1.05392826	      0.67744702	     -0.25833175	      1.06158686	      0.67741221	     -0.34272143	      1.04887056	      0.30748251	     -0.17826897	      1.30566335	      0.33907807	     -0.39673302	      1.07116187	      0.29232258	     -0.26911798	      1.30893373	      0.34082440	     -0.30121890	      0.80726421	      0.14615510	     -0.18754192	      1.29657435	      0.05694700	     -0.40014347	      0.81129038	      0.14517622	     -0.24648562	      1.30481851	      0.05095547	     -0.33540165	      1.13535547	      0.99373388	     -0.32077131	      1.23237824	      0.93055946	     -0.27586451	      1.22911406	      0.92075878	     -0.36662319	      1.21523130	      0.93975991	     -0.31378338	      1.26104462	      0.80468249	     -0.30667821	      1.20532918	      0.34374413	     -0.21848436	      1.32447803	      0.43499780	     -0.45314643	      1.14716971	      0.41995639	     -0.19220456	      1.29488099	      0.48582277	     -0.37505069	      1.11063504	      0.34065226	     -0.19169450	      1.33077776	      0.41211039	     -0.35333905	      0.89537454	      0.19288194	     -0.11439719	      1.40129399	      0.16505079	     -0.33618081	      0.93364084	      0.21496764	     -0.17807464	      1.34084058	      0.21464831	     -0.35434318	      0.82401240	      0.05380595	     -0.22475037	      1.39044130	      0.03731905	     -0.37529141
